<svg width="100" height="100" viewBox="0 0 100 100" fill="none" xmlns="http://www.w3.org/2000/svg">
<path d="M67.1083 63.1999H49.65C49.0974 63.1999 48.5675 62.9804 48.1768 62.5897C47.7861 62.199 47.5667 61.6691 47.5667 61.1165C47.5667 60.564 47.7861 60.0341 48.1768 59.6434C48.5675 59.2527 49.0974 59.0332 49.65 59.0332H67.1083C67.6609 59.0332 68.1908 59.2527 68.5815 59.6434C68.9722 60.0341 69.1917 60.564 69.1917 61.1165C69.1917 61.6691 68.9722 62.199 68.5815 62.5897C68.1908 62.9804 67.6609 63.1999 67.1083 63.1999Z" fill="#FF4343"/>
<path d="M78.8583 61.9082C78.6117 61.9667 78.3548 61.9667 78.1083 61.9082C77.8515 61.8157 77.6159 61.6726 77.4153 61.4874C77.2148 61.3022 77.0535 61.0787 76.9408 60.8301C76.8281 60.5815 76.7665 60.3128 76.7595 60.04C76.7524 59.7671 76.8002 59.4956 76.8999 59.2416L86.8166 32.7416C87.0128 32.2299 87.4028 31.8162 87.9019 31.59C88.401 31.3638 88.9692 31.3434 89.4833 31.5332C89.9989 31.7387 90.4159 32.1341 90.6485 32.638C90.8811 33.142 90.9114 33.7159 90.7333 34.2416L80.8166 60.6166C80.6486 60.9971 80.3746 61.3213 80.0274 61.5504C79.6801 61.7794 79.2742 61.9036 78.8583 61.9082Z" fill="#FF4343"/>
<path d="M36.3167 62.7C35.8819 62.7032 35.4576 62.5674 35.1053 62.3126C34.7531 62.0578 34.4914 61.6972 34.3583 61.2834L21.275 21.5334H8.77498C8.22245 21.5334 7.69255 21.3139 7.30184 20.9232C6.91114 20.5325 6.69165 20.0026 6.69165 19.45C6.70232 18.9008 6.92524 18.3771 7.31365 17.9887C7.70206 17.6003 8.22579 17.3774 8.77498 17.3667H22.775C23.2067 17.3759 23.6253 17.5164 23.9752 17.7695C24.325 18.0226 24.5895 18.3762 24.7333 18.7834L38.4417 59.95C38.533 60.207 38.5719 60.4796 38.5561 60.7519C38.5403 61.0241 38.4701 61.2904 38.3497 61.5351C38.2294 61.7798 38.0612 61.9979 37.8551 62.1765C37.649 62.3551 37.4093 62.4906 37.15 62.575C36.8853 62.6794 36.6003 62.7221 36.3167 62.7Z" fill="#FF4343"/>
<path d="M42.7333 81.45C40.261 81.45 37.8443 80.7169 35.7887 79.3433C33.733 77.9698 32.1309 76.0176 31.1848 73.7335C30.2387 71.4494 29.9912 68.9361 30.4735 66.5113C30.9558 64.0866 32.1463 61.8593 33.8944 60.1111C35.6426 58.363 37.8699 57.1725 40.2947 56.6901C42.7194 56.2078 45.2327 56.4554 47.5168 57.4015C49.8009 58.3476 51.7531 59.9497 53.1267 62.0053C54.5002 64.0609 55.2333 66.4777 55.2333 68.95C55.2333 72.2652 53.9163 75.4446 51.5721 77.7888C49.2279 80.133 46.0485 81.45 42.7333 81.45ZM42.7333 60.6166C41.0851 60.6166 39.4739 61.1054 38.1035 62.021C36.7331 62.9367 35.665 64.2382 35.0343 65.7609C34.4036 67.2836 34.2385 68.9592 34.5601 70.5757C34.8816 72.1922 35.6753 73.6771 36.8407 74.8425C38.0062 76.008 39.491 76.8016 41.1075 77.1232C42.724 77.4447 44.3996 77.2797 45.9223 76.649C47.445 76.0182 48.7465 74.9501 49.6622 73.5797C50.5779 72.2093 51.0666 70.5981 51.0666 68.95C51.0666 66.7398 50.1886 64.6202 48.6258 63.0574C47.063 61.4946 44.9434 60.6166 42.7333 60.6166Z" fill="#FF4343"/>
<path d="M74.025 81.45C71.5528 81.45 69.136 80.7169 67.0804 79.3433C65.0248 77.9698 63.4226 76.0176 62.4765 73.7335C61.5304 71.4494 61.2829 68.9361 61.7652 66.5113C62.2475 64.0866 63.438 61.8593 65.1862 60.1111C66.9344 58.363 69.1616 57.1725 71.5864 56.6901C74.0112 56.2078 76.5245 56.4554 78.8086 57.4015C81.0926 58.3476 83.0449 59.9497 84.4184 62.0053C85.7919 64.0609 86.525 66.4777 86.525 68.95C86.525 72.2652 85.2081 75.4446 82.8639 77.7888C80.5197 80.133 77.3402 81.45 74.025 81.45ZM74.025 60.6166C72.3769 60.6166 70.7657 61.1054 69.3953 62.021C68.0249 62.9367 66.9568 64.2382 66.326 65.7609C65.6953 67.2836 65.5303 68.9592 65.8518 70.5757C66.1734 72.1922 66.967 73.6771 68.1325 74.8425C69.2979 76.008 70.7828 76.8016 72.3993 77.1232C74.0158 77.4447 75.6913 77.2797 77.2141 76.649C78.7368 76.0182 80.0383 74.9501 80.9539 73.5797C81.8696 72.2093 82.3584 70.5981 82.3584 68.95C82.3584 66.7398 81.4804 64.6202 79.9176 63.0574C78.3548 61.4946 76.2352 60.6166 74.025 60.6166Z" fill="#FF4343"/>
</svg>
