<svg width="184" height="27" viewBox="0 0 184 27" fill="none" xmlns="http://www.w3.org/2000/svg">
<path d="M16.0136 21.0865H7.81939L6.38839 25.7645H0L9.09706 0.723785H14.7188L23.884 25.7645H17.4616L16.0136 21.0865ZM9.25038 16.4258H14.5826L11.908 7.74068L9.25038 16.4258Z" fill="#656980"/>
<path d="M45.4001 17.2857C45.3206 19.0285 44.855 20.5706 44.0032 21.9121C43.1514 23.2421 41.9532 24.2739 40.4087 25.0077C38.8755 25.7415 37.1208 26.1084 35.1446 26.1084C31.8851 26.1084 29.3184 25.0364 27.4445 22.8924C25.5706 20.7483 24.6336 17.7214 24.6336 13.8117V12.5734C24.6336 10.1198 25.0538 7.97572 25.8943 6.14124C26.746 4.29529 27.9669 2.87357 29.5569 1.87607C31.1469 0.867104 32.9868 0.362621 35.0765 0.362621C38.0861 0.362621 40.5052 1.16521 42.3337 2.77038C44.1622 4.36409 45.2014 6.56546 45.4512 9.37451H39.4887C39.4433 7.8496 39.0629 6.75464 38.3474 6.08964C37.6319 5.42464 36.5416 5.09215 35.0765 5.09215C33.5887 5.09215 32.4984 5.65396 31.8056 6.77758C31.1129 7.9012 30.7494 9.69555 30.7154 12.1606V13.9321C30.7154 16.6035 31.0447 18.5125 31.7034 19.6591C32.3735 20.8056 33.5206 21.3789 35.1446 21.3789C36.5189 21.3789 37.5694 21.0521 38.2962 20.3986C39.0231 19.7451 39.4092 18.7074 39.4547 17.2857H45.4001Z" fill="#656980"/>
<path d="M67.1888 5.38452H59.7442V25.7645H53.7647V5.38452H46.4563V0.723785H67.1888V5.38452Z" fill="#656980"/>
<path d="M76.0985 25.7645H70.136V0.723785H76.0985V25.7645Z" fill="#656980"/>
<path d="M89.8803 18.9539L94.8207 0.723785H101.499L93.1512 25.7645H86.6095L78.3301 0.723785H84.957L89.8803 18.9539Z" fill="#656980"/>
<path d="M118.705 15.1531H109.301V21.1209H120.408V25.7645H103.322V0.723785H120.442V5.38452H109.301V10.6644H118.705V15.1531Z" fill="#656980"/>
<path d="M123.454 25.7473V0.706587H129.978C132.647 0.706587 134.663 1.25693 136.026 2.35762C137.4 3.44684 138.087 5.03482 138.087 7.12154C138.087 8.63499 137.707 9.89046 136.946 10.888C136.185 11.8855 135.112 12.5218 133.726 12.797C135.294 13.0033 136.6 13.6913 137.644 14.8608C138.689 16.0188 139.212 17.3488 139.212 18.8508C139.212 20.9833 138.525 22.6688 137.15 23.907C135.788 25.1339 133.885 25.7473 131.443 25.7473H123.454ZM124.374 13.3817V24.8186H131.546C133.647 24.8186 135.294 24.2969 136.486 23.2535C137.69 22.1987 138.292 20.7426 138.292 18.8852C138.292 17.3029 137.713 16.0016 136.554 14.9811C135.396 13.9492 133.846 13.4161 131.903 13.3817H124.374ZM124.374 12.453H130.319C132.579 12.453 134.283 12.0173 135.43 11.1459C136.577 10.2631 137.15 8.89869 137.15 7.05275C137.15 3.49844 134.828 1.69262 130.183 1.63529H124.374V12.453Z" fill="white"/>
<path d="M162.074 15.1015C162.074 17.2685 161.688 19.189 160.915 20.863C160.154 22.5255 159.064 23.8153 157.644 24.7326C156.225 25.6383 154.589 26.0912 152.738 26.0912C149.944 26.0912 147.684 25.088 145.958 23.0815C144.232 21.0751 143.368 18.3692 143.368 14.9639V11.3523C143.368 9.1968 143.749 7.28206 144.51 5.60809C145.282 3.93413 146.378 2.64426 147.798 1.73848C149.229 0.821242 150.864 0.362621 152.704 0.362621C154.555 0.362621 156.191 0.821242 157.61 1.73848C159.041 2.64426 160.143 3.93986 160.915 5.62529C161.688 7.29925 162.074 9.20826 162.074 11.3523V15.1015ZM161.154 11.3179C161.154 8.29102 160.393 5.86607 158.871 4.04305C157.349 2.20857 155.293 1.29133 152.704 1.29133C150.149 1.29133 148.11 2.20284 146.588 4.02585C145.066 5.8374 144.305 8.30822 144.305 11.4383V15.1015C144.305 17.0965 144.646 18.8622 145.328 20.3986C146.02 21.9235 147.003 23.0987 148.275 23.9242C149.547 24.7498 151.035 25.1625 152.738 25.1625C155.328 25.1625 157.377 24.251 158.888 22.428C160.398 20.605 161.154 18.117 161.154 14.9639V11.3179Z" fill="white"/>
<path d="M174.373 12.2466L182.38 0.706587H183.539L174.953 12.9689L183.862 25.7473H182.721L174.373 13.6913L165.992 25.7473H164.885L173.794 12.9689L165.208 0.706587H166.367L174.373 12.2466Z" fill="white"/>
</svg>
